<svg xmlns="http://www.w3.org/2000/svg" width="960" height="660" viewBox="0 0 960 660" role="img" aria-labelledby="title desc">
<title id="title">Animated DebateAI voice wave and ballot</title><desc id="desc">Animated pencil-style DebateAI website accent.</desc>

<defs>
  <filter id="paperGrain" x="-10%" y="-10%" width="120%" height="120%">
    <feTurbulence type="fractalNoise" baseFrequency="0.76" numOctaves="4" seed="21" result="noise"/>
    <feColorMatrix type="saturate" values="0"/>
    <feComponentTransfer>
      <feFuncA type="table" tableValues="0 0.105"/>
    </feComponentTransfer>
  </filter>
  <filter id="softShadow" x="-30%" y="-30%" width="160%" height="180%">
    <feGaussianBlur in="SourceAlpha" stdDeviation="18" result="blur"/>
    <feOffset in="blur" dx="0" dy="18" result="offset"/>
    <feFlood flood-color="#111a22" flood-opacity="0.18" result="color"/>
    <feComposite in="color" in2="offset" operator="in" result="shadow"/>
    <feMerge><feMergeNode in="shadow"/><feMergeNode in="SourceGraphic"/></feMerge>
  </filter>
  <filter id="cardShadow" x="-30%" y="-30%" width="160%" height="180%">
    <feGaussianBlur in="SourceAlpha" stdDeviation="10" result="blur"/>
    <feOffset in="blur" dx="0" dy="10" result="offset"/>
    <feFlood flood-color="#111a22" flood-opacity="0.20" result="color"/>
    <feComposite in="color" in2="offset" operator="in" result="shadow"/>
    <feMerge><feMergeNode in="shadow"/><feMergeNode in="SourceGraphic"/></feMerge>
  </filter>
  <filter id="pencilDisplace" x="-8%" y="-8%" width="116%" height="116%">
    <feTurbulence type="fractalNoise" baseFrequency="0.025" numOctaves="3" seed="9" result="turb"/>
    <feDisplacementMap in="SourceGraphic" in2="turb" scale="1.6"/>
  </filter>
  <linearGradient id="paperFade" x1="0" x2="1" y1="0" y2="1">
    <stop offset="0" stop-color="#fffaf1"/>
    <stop offset="1" stop-color="#f7f4ec"/>
  </linearGradient>
</defs>


<style>
  .bg { fill:url(#paperFade); }
  .grain { filter:url(#paperGrain); opacity:.055; }
  .line { fill:none; stroke:#3a3a36; stroke-width:3; stroke-linecap:round; stroke-linejoin:round; filter:url(#pencilDisplace); opacity:.82; }
  .mutedLine { fill:none; stroke:#6b625a; stroke-width:2; stroke-linecap:round; stroke-linejoin:round; filter:url(#pencilDisplace); opacity:.42; }
  .draw { stroke-dasharray:520; stroke-dashoffset:520; animation:draw 5.2s ease-in-out infinite; }
  .pulse { transform-box:fill-box; transform-origin:center; animation:pulse 2.2s ease-in-out infinite; }
  .float1 { transform-box:fill-box; transform-origin:center; animation:float1 6s ease-in-out infinite; }
  .float2 { transform-box:fill-box; transform-origin:center; animation:float2 7s ease-in-out infinite; }
  .wave1 { animation:wave 2.8s ease-in-out infinite; transform-origin:240px 315px; }
  .wave2 { animation:wave 2.8s ease-in-out .45s infinite; transform-origin:240px 315px; }
  .wave3 { animation:wave 2.8s ease-in-out .9s infinite; transform-origin:240px 315px; }
  @keyframes draw { 0%,14%{stroke-dashoffset:520;opacity:.15} 52%{stroke-dashoffset:0;opacity:.8} 100%{stroke-dashoffset:0;opacity:.24} }
  @keyframes pulse { 0%,100%{transform:scale(1); opacity:.82} 50%{transform:scale(1.08); opacity:1} }
  @keyframes float1 { 0%,100%{transform:translateY(0) rotate(-1deg)} 50%{transform:translateY(-13px) rotate(1.4deg)} }
  @keyframes float2 { 0%,100%{transform:translateY(0) rotate(2deg)} 50%{transform:translateY(10px) rotate(-1deg)} }
  @keyframes wave { 0%{transform:scale(.82); opacity:.0} 30%{opacity:.68} 100%{transform:scale(1.38); opacity:0} }
  @media (prefers-reduced-motion: reduce) { .draw,.pulse,.float1,.float2,.wave1,.wave2,.wave3 { animation:none; } }
</style>

<rect class="bg" width="100%" height="100%" rx="36"/><rect class="grain" width="100%" height="100%" rx="36"/>

<ellipse cx="472" cy="500" rx="320" ry="50" fill="#ddd3c4" opacity=".36" filter="url(#softShadow)"/>
<g transform="translate(130 170)">
  <ellipse cx="105" cy="116" rx="74" ry="84" fill="#f4e7d6" stroke="#2d2d2a" stroke-width="3" opacity=".95" filter="url(#pencilDisplace)"/>
  <path class="line" d="M56 92 C44 40 83 11 134 18 C186 25 211 61 197 125"/>
  <path class="mutedLine" d="M87 77 C111 56 151 59 174 82 M94 146 C122 162 151 159 173 143"/>
  <path class="line" d="M105 202 C54 230 31 291 42 418 C96 442 170 439 222 417 C216 295 173 231 126 204"/>
</g>
<path class="line wave1" d="M292 287 C365 230 439 234 506 291" stroke="#13bfae" stroke-width="5"/>
<path class="line wave2" d="M297 245 C414 162 546 171 647 277" stroke="#13bfae" stroke-width="4" opacity=".55"/>
<path class="line wave3" d="M300 324 C398 334 455 373 518 437" stroke="#13bfae" stroke-width="4" opacity=".45"/>
<g class="float1" transform="translate(548 130)">
  <rect width="260" height="166" rx="30" fill="#111a22" filter="url(#cardShadow)"/>
  <circle cx="52" cy="54" r="22" fill="#13bfae"/>
  <path d="M47 44 L47 62 L66 62" stroke="#fff7e9" stroke-width="4" stroke-linecap="round" stroke-linejoin="round"/>
  <path d="M95 54 L214 54 M95 87 L186 87" stroke="#fff7e9" stroke-width="4" opacity=".24" stroke-linecap="round"/>
  <path d="M38 130 C56 95 74 164 93 130 S130 96 149 130 S187 163 211 130" fill="none" stroke="#13bfae" stroke-width="5" stroke-linecap="round" opacity=".85"/>
</g>
<g class="float2" transform="translate(508 370)">
  <rect width="310" height="190" rx="30" fill="#fffaf2" stroke="#d5c9ba" filter="url(#cardShadow)"/>
  <rect x="31" y="30" width="90" height="15" rx="8" fill="#b83e3e" opacity=".78"/>
  <path d="M31 75 L262 75 M31 108 L235 108 M31 141 L268 141" stroke="#6b625a" stroke-width="4" opacity=".31" stroke-linecap="round"/>
  <path d="M34 164 C88 138 154 140 229 158" fill="none" stroke="#13bfae" stroke-width="5" stroke-linecap="round" opacity=".75"/>
</g>

</svg>