<svg xmlns="http://www.w3.org/2000/svg" width="1400" height="900" viewBox="0 0 1400 900" role="img" aria-labelledby="title desc">
<title id="title">DebateAI hero debate table illustration</title>
<desc id="desc">Pencil drawn DebateAI illustration with cream paper grain, graphite lines, navy interface cards, red annotations, teal highlights, and soft shadows.</desc>

<defs>
  <filter id="paperGrain" x="-10%" y="-10%" width="120%" height="120%">
    <feTurbulence type="fractalNoise" baseFrequency="0.76" numOctaves="4" seed="21" result="noise"/>
    <feColorMatrix type="saturate" values="0"/>
    <feComponentTransfer>
      <feFuncA type="table" tableValues="0 0.105"/>
    </feComponentTransfer>
  </filter>
  <filter id="softShadow" x="-30%" y="-30%" width="160%" height="180%">
    <feGaussianBlur in="SourceAlpha" stdDeviation="18" result="blur"/>
    <feOffset in="blur" dx="0" dy="18" result="offset"/>
    <feFlood flood-color="#111a22" flood-opacity="0.18" result="color"/>
    <feComposite in="color" in2="offset" operator="in" result="shadow"/>
    <feMerge><feMergeNode in="shadow"/><feMergeNode in="SourceGraphic"/></feMerge>
  </filter>
  <filter id="cardShadow" x="-30%" y="-30%" width="160%" height="180%">
    <feGaussianBlur in="SourceAlpha" stdDeviation="10" result="blur"/>
    <feOffset in="blur" dx="0" dy="10" result="offset"/>
    <feFlood flood-color="#111a22" flood-opacity="0.20" result="color"/>
    <feComposite in="color" in2="offset" operator="in" result="shadow"/>
    <feMerge><feMergeNode in="shadow"/><feMergeNode in="SourceGraphic"/></feMerge>
  </filter>
  <filter id="pencilDisplace" x="-8%" y="-8%" width="116%" height="116%">
    <feTurbulence type="fractalNoise" baseFrequency="0.025" numOctaves="3" seed="9" result="turb"/>
    <feDisplacementMap in="SourceGraphic" in2="turb" scale="1.6"/>
  </filter>
  <linearGradient id="paperFade" x1="0" x2="1" y1="0" y2="1">
    <stop offset="0" stop-color="#fffaf1"/>
    <stop offset="1" stop-color="#f7f4ec"/>
  </linearGradient>
</defs>


<style>
  .bg { fill:url(#paperFade); }
  .grain { filter:url(#paperGrain); opacity:.055; }
  .pencil { fill:none; stroke:#3a3a36; stroke-width:3.2; stroke-linecap:round; stroke-linejoin:round; opacity:.86; filter:url(#pencilDisplace); }
  .pencil2 { fill:none; stroke:#6b625a; stroke-width:1.55; stroke-linecap:round; stroke-linejoin:round; opacity:.52; filter:url(#pencilDisplace); }
  .pencil3 { fill:none; stroke:#3a3a36; stroke-width:1.1; stroke-linecap:round; stroke-linejoin:round; opacity:.26; filter:url(#pencilDisplace); }
  .navy { fill:#111a22; }
  .navy2 { fill:#182631; }
  .red { stroke:#b83e3e; }
  .teal { stroke:#13bfae; }
  .redFill { fill:#b83e3e; }
  .tealFill { fill:#13bfae; }
  .soft { filter:url(#softShadow); }
  .card { filter:url(#cardShadow); }
  .paperCard { fill:#fffaf2; stroke:#ddd4c5; stroke-width:1.5; filter:url(#cardShadow); }
  .tiny { stroke-width:2; opacity:.72; }
  .wash { fill:#111a22; opacity:.045; }
</style>


<rect class="bg" width="100%" height="100%" rx="38"/>
<rect class="grain" width="100%" height="100%" rx="38"/>

<ellipse cx="700" cy="732" rx="440" ry="74" fill="#ded4c3" opacity=".42" filter="url(#softShadow)"/>
<path class="wash" d="M168 132 C274 82 381 104 492 132 C645 171 762 103 902 121 C1046 141 1187 181 1258 260 L1248 631 C1076 698 922 667 744 642 C515 608 383 685 198 632 Z"/>

<!-- table -->
<ellipse cx="700" cy="584" rx="448" ry="148" fill="#fff7e9" stroke="#d8cdbd" stroke-width="2.2" filter="url(#softShadow)"/>
<ellipse cx="700" cy="584" rx="405" ry="118" fill="none" stroke="#736b63" stroke-width="1.1" opacity=".22"/>
<path class="pencil3" d="M 1062.8 529.3 Q 1086.4 528.0 1078.4 533.0 Q 1103.8 524.5 1095.8 529.5 Q 1134.7 525.9 1126.7 530.9"/>
<path class="pencil3" d="M 967.0 270.4 Q 987.1 269.3 979.1 274.3 Q 1016.4 271.6 1008.4 276.6 Q 1055.6 275.9 1047.6 280.9"/>
<path class="pencil3" d="M 569.6 908.0 Q 601.8 916.0 593.8 921.0 Q 612.8 905.6 604.8 910.6 Q 630.8 908.8 622.8 913.8"/>
<path class="pencil3" d="M 367.1 354.6 Q 387.9 353.8 379.9 358.8 Q 423.2 357.5 415.2 362.5 Q 458.7 349.9 450.7 354.9"/>
<path class="pencil3" d="M 635.0 543.8 Q 655.7 529.5 647.7 534.5 Q 697.7 541.1 689.7 546.1 Q 721.6 539.7 713.6 544.7"/>
<path class="pencil3" d="M 466.6 848.8 Q 485.3 836.0 477.3 841.0 Q 515.5 839.7 507.5 844.7 Q 507.8 843.8 499.8 848.8"/>
<path class="pencil3" d="M 1002.1 709.6 Q 1031.9 711.1 1023.9 716.1 Q 1054.1 707.9 1046.1 712.9 Q 1045.8 706.7 1037.8 711.7"/>
<path class="pencil3" d="M 607.8 628.2 Q 635.3 620.4 627.3 625.4 Q 662.0 617.7 654.0 622.7 Q 657.8 616.8 649.8 621.8"/>
<path class="pencil3" d="M 965.6 285.1 Q 996.2 265.5 988.2 270.5 Q 1025.2 278.6 1017.2 283.6 Q 1054.7 267.1 1046.7 272.1"/>
<path class="pencil3" d="M 495.6 522.7 Q 518.8 514.5 510.8 519.5 Q 542.2 523.2 534.2 528.2 Q 567.8 520.7 559.8 525.7"/>
<path class="pencil3" d="M 1025.0 854.9 Q 1055.8 850.2 1047.8 855.2 Q 1072.5 856.9 1064.5 861.9 Q 1081.2 854.3 1073.2 859.3"/>
<path class="pencil3" d="M 923.5 749.3 Q 945.2 741.5 937.2 746.5 Q 958.7 731.5 950.7 736.5 Q 985.6 732.4 977.6 737.4"/>
<path class="pencil3" d="M 563.5 440.2 Q 589.4 430.9 581.4 435.9 Q 620.2 439.0 612.2 444.0 Q 649.7 433.0 641.7 438.0"/>
<path class="pencil3" d="M 382.5 859.5 Q 405.1 849.0 397.1 854.0 Q 420.3 858.8 412.3 863.8 Q 448.5 854.9 440.5 859.9"/>
<path class="pencil3" d="M 473.8 531.0 Q 492.4 529.5 484.4 534.5 Q 527.6 516.9 519.6 521.9 Q 522.5 520.8 514.5 525.8"/>
<path class="pencil3" d="M 506.8 600.9 Q 541.8 604.3 533.8 609.3 Q 548.5 599.1 540.5 604.1 Q 562.2 600.5 554.2 605.5"/>
<path class="pencil3" d="M 779.5 742.0 Q 813.1 726.6 805.1 731.6 Q 817.4 728.4 809.4 733.4 Q 835.0 736.0 827.0 741.0"/>
<path class="pencil3" d="M 988.6 757.9 Q 1013.6 761.8 1005.6 766.8 Q 1034.9 762.9 1026.9 767.9 Q 1030.7 748.2 1022.7 753.2"/>
<path class="pencil3" d="M 506.8 875.0 Q 533.0 869.9 525.0 874.9 Q 566.7 871.1 558.7 876.1 Q 577.7 868.8 569.7 873.8"/>
<path class="pencil3" d="M 792.9 393.8 Q 826.5 389.3 818.5 394.3 Q 834.1 387.1 826.1 392.1 Q 848.3 386.2 840.3 391.2"/>
<path class="pencil3" d="M 906.2 768.7 Q 931.1 759.0 923.1 764.0 Q 964.4 765.1 956.4 770.1 Q 946.2 752.8 938.2 757.8"/>
<path class="pencil3" d="M 649.7 436.1 Q 677.8 431.2 669.8 436.2 Q 694.5 423.5 686.5 428.5 Q 738.0 430.4 730.0 435.4"/>
<path class="pencil3" d="M 1003.6 711.6 Q 1024.1 703.3 1016.1 708.3 Q 1061.5 697.4 1053.5 702.4 Q 1045.2 705.5 1037.2 710.5"/>
<path class="pencil3" d="M 368.8 293.7 Q 402.9 301.8 394.9 306.8 Q 416.8 295.5 408.8 300.5 Q 451.3 299.3 443.3 304.3"/>
<path class="pencil3" d="M 697.1 330.8 Q 726.0 324.6 718.0 329.6 Q 738.4 323.1 730.4 328.1 Q 781.6 313.1 773.6 318.1"/>
<path class="pencil3" d="M 1057.9 613.9 Q 1084.2 601.6 1076.2 606.6 Q 1115.8 609.7 1107.8 614.7 Q 1126.2 609.7 1118.2 614.7"/>
<path class="pencil3" d="M 905.0 817.4 Q 940.9 819.0 932.9 824.0 Q 966.9 806.8 958.9 811.8 Q 950.2 812.1 942.2 817.1"/>
<path class="pencil3" d="M 532.3 346.6 Q 561.2 354.0 553.2 359.0 Q 573.1 341.1 565.1 346.1 Q 618.0 350.5 610.0 355.5"/>
<path class="pencil3" d="M 465.7 361.0 Q 500.2 356.0 492.2 361.0 Q 493.9 363.0 485.9 368.0 Q 553.0 362.3 545.0 367.3"/>
<path class="pencil3" d="M 402.2 916.4 Q 437.3 904.1 429.3 909.1 Q 463.0 907.3 455.0 912.3 Q 492.3 905.7 484.3 910.7"/>
<path class="pencil3" d="M 881.9 283.2 Q 902.2 279.1 894.2 284.1 Q 934.2 281.5 926.2 286.5 Q 924.9 282.5 916.9 287.5"/>
<path class="pencil3" d="M 641.3 471.5 Q 662.9 464.7 654.9 469.7 Q 704.3 460.2 696.3 465.2 Q 729.5 451.4 721.5 456.4"/>

<!-- left debater -->
<g transform="translate(286 334)">
  <ellipse cx="95" cy="80" rx="54" ry="58" fill="#f7efe0" stroke="#333" stroke-width="2.6" opacity=".92" filter="url(#pencilDisplace)"/>
  <path class="pencil" d="M52 68 C45 32 77 13 111 19 C137 24 154 43 157 76"/>
  <path class="pencil2" d="M58 47 C69 25 107 17 132 34 M49 87 C70 84 94 92 112 111"/>
  <path class="pencil" d="M82 136 C45 167 28 222 35 309 C79 321 149 322 195 306 C193 226 162 169 123 136"/>
  <path class="pencil" d="M151 186 C213 202 252 228 306 264"/>
  <path class="pencil" d="M306 264 C323 274 335 276 350 267"/>
  <path class="pencil2" d="M87 168 C103 215 111 249 109 307 M124 163 C148 203 165 235 172 302"/>
  <path class="pencil2" d="M65 56 C42 65 35 83 35 98 C37 115 55 124 73 118"/>
  <path class="pencil3" d="M91 83 C101 78 112 80 121 86 M129 93 C137 99 142 103 145 111"/>
</g>

<!-- right debater -->
<g transform="translate(946 346) scale(-1 1)">
  <ellipse cx="95" cy="80" rx="52" ry="57" fill="#f7efe0" stroke="#333" stroke-width="2.6" opacity=".92" filter="url(#pencilDisplace)"/>
  <path class="pencil" d="M58 61 C62 27 93 15 128 23 C157 30 174 51 170 90"/>
  <path class="pencil2" d="M69 45 C86 28 121 28 145 45 M50 96 C71 82 102 96 118 113"/>
  <path class="pencil" d="M81 135 C47 164 25 226 34 309 C86 322 150 321 196 304 C193 230 165 169 124 135"/>
  <path class="pencil" d="M149 185 C210 199 252 230 314 254"/>
  <path class="pencil" d="M314 254 C334 260 347 257 361 244"/>
  <path class="pencil2" d="M87 165 C105 218 109 257 102 306 M129 162 C155 210 174 249 178 301"/>
  <path class="pencil3" d="M89 84 C103 78 115 81 125 88 M135 94 C143 100 147 106 151 113"/>
</g>

<!-- abstract AI cards -->
<g transform="translate(570 245) rotate(-2)">
  <rect class="navy card" x="0" y="0" width="318" height="210" rx="28"/>
  <rect x="25" y="29" width="138" height="18" rx="9" fill="#fff7e9" opacity=".20"/>
  <path d="M31 86 C72 54 109 132 152 94 S227 89 288 64" fill="none" stroke="#13bfae" stroke-width="5" stroke-linecap="round" opacity=".86"/>
  <path d="M32 132 C82 111 104 157 151 142 S229 144 285 117" fill="none" stroke="#fff7e9" stroke-width="3" stroke-linecap="round" opacity=".36"/>
  <circle cx="280" cy="38" r="10" fill="#b83e3e" opacity=".92"/>
  <path d="M28 172 L145 172 M28 187 L262 187" stroke="#fff7e9" stroke-width="3" opacity=".24" stroke-linecap="round"/>
</g>
<g transform="translate(870 288) rotate(6)">
  <rect class="navy2 card" x="0" y="0" width="224" height="148" rx="24" opacity=".98"/>
  <path d="M30 42 L170 42 M30 70 L195 70 M30 98 L132 98" stroke="#fff7e9" stroke-width="4" opacity=".24" stroke-linecap="round"/>
  <circle cx="188" cy="112" r="9" fill="#13bfae"/>
</g>
<g transform="translate(441 265) rotate(-8)">
  <rect class="paperCard" x="0" y="0" width="210" height="144" rx="22"/>
  <path d="M30 42 L156 42 M30 65 L188 65 M30 88 L121 88" stroke="#6b625a" stroke-width="3" opacity=".32" stroke-linecap="round"/>
  <path class="red tiny" d="M145 99 C159 86 177 85 191 99"/>
</g>

<!-- argument arcs -->
<path class="pencil2 teal" d="M452 376 C515 284 600 273 674 309" stroke-width="3" opacity=".7"/>
<path class="pencil2 red" d="M931 391 C859 299 777 277 687 310" stroke-width="3" opacity=".62"/>
<path class="pencil2" d="M435 514 C539 458 631 454 704 495 C791 545 873 522 968 474"/>
<circle cx="706" cy="498" r="18" fill="none" stroke="#13bfae" stroke-width="4" opacity=".8"/>
<path d="M1003 205 C1112 215 1174 284 1182 392" fill="none" stroke="#3a3a36" stroke-width="1.5" opacity=".18"/>
<path d="M230 207 C136 257 114 360 145 465" fill="none" stroke="#3a3a36" stroke-width="1.5" opacity=".15"/>

<!-- paper notes on table -->
<g transform="translate(584 588) rotate(4)">
  <rect x="0" y="0" width="170" height="98" rx="14" fill="#fffaf2" stroke="#d5c9ba" filter="url(#cardShadow)"/>
  <path d="M23 27 L124 27 M23 48 L143 48 M23 70 L91 70" stroke="#6b625a" stroke-width="2.2" opacity=".36" stroke-linecap="round"/>
</g>
<g transform="translate(760 552) rotate(-10)">
  <rect x="0" y="0" width="152" height="86" rx="14" fill="#fffaf2" stroke="#d5c9ba" filter="url(#cardShadow)"/>
  <path d="M23 25 L126 25 M23 46 L119 46 M23 66 L69 66" stroke="#6b625a" stroke-width="2.2" opacity=".36" stroke-linecap="round"/>
</g>

</svg>