<svg xmlns="http://www.w3.org/2000/svg" width="1200" height="900" viewBox="0 0 1200 900" role="img" aria-labelledby="title desc">
<title id="title">DebateAI philosophy framework illustration</title>
<desc id="desc">Pencil drawn DebateAI illustration with cream paper grain, graphite lines, navy interface cards, red annotations, teal highlights, and soft shadows.</desc>

<defs>
  <filter id="paperGrain" x="-10%" y="-10%" width="120%" height="120%">
    <feTurbulence type="fractalNoise" baseFrequency="0.76" numOctaves="4" seed="21" result="noise"/>
    <feColorMatrix type="saturate" values="0"/>
    <feComponentTransfer>
      <feFuncA type="table" tableValues="0 0.105"/>
    </feComponentTransfer>
  </filter>
  <filter id="softShadow" x="-30%" y="-30%" width="160%" height="180%">
    <feGaussianBlur in="SourceAlpha" stdDeviation="18" result="blur"/>
    <feOffset in="blur" dx="0" dy="18" result="offset"/>
    <feFlood flood-color="#111a22" flood-opacity="0.18" result="color"/>
    <feComposite in="color" in2="offset" operator="in" result="shadow"/>
    <feMerge><feMergeNode in="shadow"/><feMergeNode in="SourceGraphic"/></feMerge>
  </filter>
  <filter id="cardShadow" x="-30%" y="-30%" width="160%" height="180%">
    <feGaussianBlur in="SourceAlpha" stdDeviation="10" result="blur"/>
    <feOffset in="blur" dx="0" dy="10" result="offset"/>
    <feFlood flood-color="#111a22" flood-opacity="0.20" result="color"/>
    <feComposite in="color" in2="offset" operator="in" result="shadow"/>
    <feMerge><feMergeNode in="shadow"/><feMergeNode in="SourceGraphic"/></feMerge>
  </filter>
  <filter id="pencilDisplace" x="-8%" y="-8%" width="116%" height="116%">
    <feTurbulence type="fractalNoise" baseFrequency="0.025" numOctaves="3" seed="9" result="turb"/>
    <feDisplacementMap in="SourceGraphic" in2="turb" scale="1.6"/>
  </filter>
  <linearGradient id="paperFade" x1="0" x2="1" y1="0" y2="1">
    <stop offset="0" stop-color="#fffaf1"/>
    <stop offset="1" stop-color="#f7f4ec"/>
  </linearGradient>
</defs>


<style>
  .bg { fill:url(#paperFade); }
  .grain { filter:url(#paperGrain); opacity:.055; }
  .pencil { fill:none; stroke:#3a3a36; stroke-width:3.2; stroke-linecap:round; stroke-linejoin:round; opacity:.86; filter:url(#pencilDisplace); }
  .pencil2 { fill:none; stroke:#6b625a; stroke-width:1.55; stroke-linecap:round; stroke-linejoin:round; opacity:.52; filter:url(#pencilDisplace); }
  .pencil3 { fill:none; stroke:#3a3a36; stroke-width:1.1; stroke-linecap:round; stroke-linejoin:round; opacity:.26; filter:url(#pencilDisplace); }
  .navy { fill:#111a22; }
  .navy2 { fill:#182631; }
  .red { stroke:#b83e3e; }
  .teal { stroke:#13bfae; }
  .redFill { fill:#b83e3e; }
  .tealFill { fill:#13bfae; }
  .soft { filter:url(#softShadow); }
  .card { filter:url(#cardShadow); }
  .paperCard { fill:#fffaf2; stroke:#ddd4c5; stroke-width:1.5; filter:url(#cardShadow); }
  .tiny { stroke-width:2; opacity:.72; }
  .wash { fill:#111a22; opacity:.045; }
</style>


<rect class="bg" width="100%" height="100%" rx="38"/>
<rect class="grain" width="100%" height="100%" rx="38"/>

<ellipse cx="610" cy="740" rx="434" ry="72" fill="#ddd3c4" opacity=".38" filter="url(#softShadow)"/>
<path class="wash" d="M73 138 C276 85 450 185 630 119 C800 56 973 95 1118 190 L1101 611 C899 694 700 608 508 655 C329 699 196 673 95 596 Z"/>

<!-- faint classical motifs -->
<g opacity=".18" transform="translate(748 108)">
  <path class="pencil2" d="M109 44 C70 47 47 78 49 121 C51 165 77 188 112 190 C149 192 181 164 184 120 C187 78 155 42 109 44Z"/>
  <path class="pencil2" d="M73 191 C59 230 58 272 78 314 M155 191 C178 227 181 271 163 316"/>
  <path class="pencil3" d="M76 82 C91 59 137 58 158 84 M92 127 C109 137 130 137 146 125"/>
  <path class="pencil2" d="M318 61 L384 61 L384 354 L318 354 Z M302 61 L401 61 M302 354 L405 354"/>
  <path class="pencil3" d="M334 85 L334 333 M366 85 L366 333"/>
</g>

<!-- desk and books -->
<path d="M188 645 C345 600 823 597 1035 642 C1075 651 1104 674 1112 705 C794 771 434 773 127 714 C130 683 151 656 188 645Z" fill="#fff6e7" stroke="#d8cdbd" stroke-width="2" filter="url(#softShadow)"/>
<path class="pencil3" d="M 215.5 947.4 Q 249.2 932.9 241.2 937.9 Q 254.0 935.3 246.0 940.3 Q 299.7 935.3 291.7 940.3"/>
<path class="pencil3" d="M 536.2 378.8 Q 562.9 368.6 554.9 373.6 Q 598.5 367.5 590.5 372.5 Q 577.7 373.4 569.7 378.4"/>
<path class="pencil3" d="M 934.0 829.4 Q 960.7 816.2 952.7 821.2 Q 977.7 828.1 969.7 833.1 Q 974.7 827.6 966.7 832.6"/>
<path class="pencil3" d="M 952.0 691.0 Q 978.0 686.2 970.0 691.2 Q 992.8 678.8 984.8 683.8 Q 990.8 689.5 982.8 694.5"/>
<path class="pencil3" d="M 521.8 570.2 Q 552.1 553.9 544.1 558.9 Q 583.3 550.0 575.3 555.0 Q 584.6 555.5 576.6 560.5"/>
<path class="pencil3" d="M 746.2 696.1 Q 765.8 695.3 757.8 700.3 Q 807.7 689.5 799.7 694.5 Q 828.3 691.6 820.3 696.6"/>
<path class="pencil3" d="M 356.3 278.9 Q 376.8 268.3 368.8 273.3 Q 418.9 272.3 410.9 277.3 Q 445.2 271.0 437.2 276.0"/>
<path class="pencil3" d="M 863.0 1066.8 Q 887.5 1058.7 879.5 1063.7 Q 923.6 1072.1 915.6 1077.1 Q 941.6 1070.9 933.6 1075.9"/>
<path class="pencil3" d="M 623.8 252.3 Q 649.3 231.7 641.3 236.7 Q 660.2 236.0 652.2 241.0 Q 665.9 238.1 657.9 243.1"/>
<path class="pencil3" d="M 953.4 367.1 Q 980.5 362.9 972.5 367.9 Q 1005.7 366.6 997.7 371.6 Q 1027.1 370.7 1019.1 375.7"/>
<path class="pencil3" d="M 567.2 1081.2 Q 600.4 1069.1 592.4 1074.1 Q 600.7 1067.7 592.7 1072.7 Q 608.3 1064.9 600.3 1069.9"/>
<path class="pencil3" d="M 758.1 1005.9 Q 778.0 1010.7 770.0 1015.7 Q 802.0 1004.7 794.0 1009.7 Q 834.2 1009.5 826.2 1014.5"/>
<path class="pencil3" d="M 283.8 964.7 Q 307.7 954.8 299.7 959.8 Q 336.5 951.8 328.5 956.8 Q 375.1 962.5 367.1 967.5"/>
<path class="pencil3" d="M 672.0 291.0 Q 703.0 282.3 695.0 287.3 Q 723.1 284.3 715.1 289.3 Q 731.6 284.4 723.6 289.4"/>
<path class="pencil3" d="M 891.3 259.5 Q 925.2 245.5 917.2 250.5 Q 947.8 252.1 939.8 257.1 Q 975.8 258.3 967.8 263.3"/>
<path class="pencil3" d="M 948.4 403.6 Q 974.2 394.9 966.2 399.9 Q 981.7 386.7 973.7 391.7 Q 990.4 394.0 982.4 399.0"/>
<path class="pencil3" d="M 665.3 1054.6 Q 689.3 1044.4 681.3 1049.4 Q 728.6 1040.1 720.6 1045.1 Q 756.2 1044.1 748.2 1049.1"/>
<path class="pencil3" d="M 619.3 741.9 Q 646.1 730.6 638.1 735.6 Q 663.4 732.6 655.4 737.6 Q 683.6 727.7 675.6 732.7"/>
<path class="pencil3" d="M 743.4 617.5 Q 764.8 615.1 756.8 620.1 Q 795.1 609.5 787.1 614.5 Q 803.1 605.2 795.1 610.2"/>
<path class="pencil3" d="M 477.5 474.9 Q 509.4 466.9 501.4 471.9 Q 518.8 466.3 510.8 471.3 Q 561.7 466.9 553.7 471.9"/>
<path class="pencil3" d="M 957.9 803.9 Q 981.0 798.6 973.0 803.6 Q 990.4 804.9 982.4 809.9 Q 1042.4 805.2 1034.4 810.2"/>
<path class="pencil3" d="M 207.3 900.2 Q 228.0 895.0 220.0 900.0 Q 264.9 898.5 256.9 903.5 Q 289.3 902.7 281.3 907.7"/>
<path class="pencil3" d="M 702.0 946.2 Q 731.8 931.2 723.8 936.2 Q 731.1 929.2 723.1 934.2 Q 780.6 943.0 772.6 948.0"/>
<path class="pencil3" d="M 205.5 639.5 Q 231.1 628.0 223.1 633.0 Q 240.0 640.6 232.0 645.6 Q 280.1 640.6 272.1 645.6"/>
<path class="pencil3" d="M 712.4 830.0 Q 745.9 825.0 737.9 830.0 Q 767.4 813.3 759.4 818.3 Q 767.1 825.5 759.1 830.5"/>
<path class="pencil3" d="M 366.3 494.9 Q 398.1 489.9 390.1 494.9 Q 424.8 498.9 416.8 503.9 Q 454.6 490.0 446.6 495.0"/>
<path class="pencil3" d="M 610.4 784.7 Q 632.8 783.3 624.8 788.3 Q 663.1 788.0 655.1 793.0 Q 696.8 786.3 688.8 791.3"/>
<path class="pencil3" d="M 521.4 991.9 Q 557.4 982.3 549.4 987.3 Q 568.3 988.1 560.3 993.1 Q 579.4 976.9 571.4 981.9"/>
<path class="pencil3" d="M 630.0 708.0 Q 654.4 706.2 646.4 711.2 Q 690.7 701.4 682.7 706.4 Q 720.8 698.2 712.8 703.2"/>
<path class="pencil3" d="M 243.9 888.2 Q 268.0 894.9 260.0 899.9 Q 300.1 886.8 292.1 891.8 Q 311.0 881.3 303.0 886.3"/>
<g transform="translate(166 520) rotate(-5)">
  <path d="M0 72 C64 27 139 38 205 78 L205 160 C133 120 66 119 0 159 Z" fill="#fffaf2" stroke="#d5c9ba" stroke-width="2" filter="url(#cardShadow)"/>
  <path d="M205 78 C266 31 352 35 414 68 L414 157 C341 120 273 122 205 160 Z" fill="#fffaf2" stroke="#d5c9ba" stroke-width="2" filter="url(#cardShadow)"/>
  <path d="M205 80 L205 162" stroke="#6b625a" stroke-width="2" opacity=".35"/>
  <path d="M35 91 C79 74 129 78 176 98 M240 90 C288 74 337 76 389 94" stroke="#6b625a" stroke-width="2" opacity=".35" stroke-linecap="round"/>
</g>

<!-- student profile -->
<g transform="translate(232 240)">
  <ellipse cx="103" cy="112" rx="66" ry="72" fill="#f8efe1" stroke="#333" stroke-width="2.7" opacity=".94" filter="url(#pencilDisplace)"/>
  <path class="pencil" d="M62 98 C42 54 66 21 111 22 C151 24 177 55 174 105"/>
  <path class="pencil2" d="M78 72 C100 53 137 55 158 78 M96 125 C114 136 135 134 151 121"/>
  <path class="pencil" d="M105 188 C59 220 37 271 46 382 C91 402 161 401 209 382 C206 286 171 221 132 189"/>
  <path class="pencil2" d="M147 190 C185 220 208 255 221 302 M80 198 C62 251 62 310 68 383"/>
  <path class="pencil" d="M154 290 C236 280 294 309 357 355"/>
  <path class="pencil2" d="M354 354 C369 364 387 367 405 360"/>
</g>

<!-- branching framework cards -->
<g transform="translate(570 205)">
  <rect class="paperCard" x="0" y="0" width="190" height="98" rx="18"/>
  <rect class="paperCard" x="-136" y="184" width="174" height="92" rx="18"/>
  <rect class="paperCard" x="118" y="178" width="180" height="92" rx="18"/>
  <rect class="paperCard" x="-54" y="350" width="188" height="94" rx="18"/>
  <rect class="navy card" x="298" y="342" width="196" height="112" rx="22"/>
  <path d="M36 34 L148 34 M36 55 L165 55 M36 76 L102 76" stroke="#6b625a" stroke-width="3" opacity=".34" stroke-linecap="round"/>
  <path d="M-102 217 L14 217 M-102 239 L-20 239 M154 210 L262 210 M154 235 L232 235 M-18 383 L100 383 M-18 407 L71 407" stroke="#6b625a" stroke-width="3" opacity=".34" stroke-linecap="round"/>
  <path d="M328 380 L456 380 M328 405 L426 405 M328 430 L393 430" stroke="#fff7e9" stroke-width="3" opacity=".28" stroke-linecap="round"/>
  <path class="pencil2 teal" d="M94 101 C76 151 5 149 -39 184" stroke-width="3.2"/>
  <path class="pencil2 red" d="M104 101 C134 149 198 142 214 178" stroke-width="3.2"/>
  <path class="pencil2" d="M-51 276 C-24 316 18 325 41 350"/>
  <path class="pencil2" d="M214 270 C187 315 128 315 92 350"/>
  <path class="pencil2 teal" d="M135 397 C217 385 259 378 298 392"/>
  <circle cx="-41" cy="184" r="8" fill="#13bfae"/>
  <circle cx="214" cy="178" r="8" fill="#b83e3e"/>
  <path d="M390 315 C416 288 449 288 476 316" fill="none" stroke="#b83e3e" stroke-width="4" opacity=".78"/>
</g>

<!-- side annotations -->
<g transform="translate(941 544) rotate(6)">
  <rect class="paperCard" width="146" height="92" rx="18"/>
  <path d="M22 30 L108 30 M22 51 L119 51 M22 70 L78 70" stroke="#6b625a" stroke-width="2.6" opacity=".30" stroke-linecap="round"/>
  <path d="M116 22 L131 38 L107 64" fill="none" stroke="#13bfae" stroke-width="4" stroke-linecap="round" stroke-linejoin="round" opacity=".85"/>
</g>
<path class="pencil3" d="M90 220 C157 204 190 245 232 256 M989 208 C1055 248 1092 306 1111 383"/>

</svg>